<?xml version="1.0" encoding="UTF-8" standalone="no"?>
<!DOCTYPE svg PUBLIC "-//W3C//DTD SVG 1.1//EN" "http://www.w3.org/Graphics/SVG/1.1/DTD/svg11.dtd">
<svg width="100%" height="100%" viewBox="0 0 579 558" version="1.1" xmlns="http://www.w3.org/2000/svg" xmlns:xlink="http://www.w3.org/1999/xlink" xml:space="preserve" style="fill-rule:evenodd;clip-rule:evenodd;stroke-linecap:round;stroke-linejoin:round;stroke-miterlimit:1.5;">
    <g transform="matrix(0.165963,0,0,0.165963,500.261,506.3)">
        <g transform="matrix(0.853604,0,0,0.853604,1397.11,-976.683)">
            <g transform="matrix(6.02544,0,0,6.02544,-10672.6,-3930.4)">
                <circle cx="1251" cy="574" r="272.75" style="fill:none;stroke:rgb(115,115,115);stroke-width:1.17px;"/>
            </g>
            <g transform="matrix(5.71488,0,0,5.71488,-10284.1,-3752.13)">
                <circle cx="1251" cy="574" r="272.75" style="fill:none;stroke:rgb(115,115,115);stroke-width:0.99px;stroke-dasharray:4.94,4.94,4.94,4.94;"/>
            </g>
            <g transform="matrix(6.02544,0,0,6.02544,-8931.28,-3930.4)">
                <circle cx="863" cy="321" r="61.982" style="fill:white;stroke:rgb(115,115,115);stroke-width:1.17px;"/>
            </g>
            <g transform="matrix(6.02544,0,0,6.02544,-8931.28,-843.204)">
                <circle cx="863" cy="321" r="61.982" style="fill:white;stroke:rgb(115,115,115);stroke-width:1.17px;"/>
            </g>
            <g transform="matrix(6.02544,0,0,6.02544,-9691.31,-1460.44)">
                <circle cx="863" cy="321" r="61.982" style="fill:white;stroke:rgb(115,115,115);stroke-width:1.17px;"/>
            </g>
            <g transform="matrix(-6.02544,0,0,6.02544,3425.44,-1460.44)">
                <circle cx="863" cy="321" r="61.982" style="fill:white;stroke:rgb(115,115,115);stroke-width:1.17px;"/>
            </g>
            <g transform="matrix(6.02544,0,0,6.02544,-9955.61,-2389.15)">
                <circle cx="863" cy="321" r="61.982" style="fill:white;stroke:rgb(115,115,115);stroke-width:1.17px;"/>
            </g>
            <g transform="matrix(-6.02544,0,0,6.02544,3689.74,-2389.15)">
                <circle cx="863" cy="321" r="61.982" style="fill:white;stroke:rgb(115,115,115);stroke-width:1.17px;"/>
            </g>
            <g transform="matrix(6.02544,0,0,6.02544,-9742.04,-3352)">
                <circle cx="863" cy="321" r="61.982" style="fill:white;stroke:rgb(115,115,115);stroke-width:1.17px;"/>
            </g>
            <g transform="matrix(-6.02544,0,0,6.02544,3476.17,-3352)">
                <circle cx="863" cy="321" r="61.982" style="fill:white;stroke:rgb(115,115,115);stroke-width:1.17px;"/>
            </g>
            <g transform="matrix(6.02544,0,0,6.02544,-7834.53,-3930.4)">
                <circle cx="863" cy="321" r="61.982" style="fill:white;stroke:rgb(115,115,115);stroke-width:1.17px;"/>
            </g>
            <g transform="matrix(6.02544,0,0,6.02544,-7834.53,-843.204)">
                <circle cx="863" cy="321" r="61.982" style="fill:white;stroke:rgb(115,115,115);stroke-width:1.17px;"/>
            </g>
            <g transform="matrix(5.33818,0,0,5.33818,-5691.33,-3103.38)">
                <g transform="matrix(2.16418,0,0,2.16418,4.37742,-13.1141)">
                    <path d="M105.456,155.091C105.456,156.53 104.29,157.696 102.852,157.696L84.791,157.696C83.352,157.696 82.186,156.53 82.186,155.091L82.186,137.032C82.186,135.593 83.352,134.427 84.791,134.427L102.852,134.427C104.29,134.427 105.456,135.593 105.456,137.032L105.456,155.091Z" style="fill:rgb(231,231,232);fill-rule:nonzero;stroke:rgb(111,111,112);stroke-width:0.61px;stroke-linecap:butt;stroke-miterlimit:1.41421;"/>
                </g>
                <g transform="matrix(2.07823,0,0,2.07823,12.6408,-0.561514)">
                    <path d="M102.852,157.697C104.29,157.697 105.456,156.53 105.456,155.091L105.456,137.032C105.456,135.593 104.29,134.427 102.852,134.427L93.821,134.427L93.821,157.697L102.852,157.697Z" style="fill:rgb(241,242,243);fill-rule:nonzero;"/>
                </g>
                <g transform="matrix(2.16418,0,0,2.16418,4.37742,-13.1141)">
                    <path d="M102.112,146.062C102.112,150.641 98.4,154.354 93.821,154.354C89.241,154.354 85.528,150.641 85.528,146.062C85.528,141.482 89.241,137.77 93.821,137.77C98.4,137.77 102.112,141.482 102.112,146.062Z" style="fill:rgb(210,211,212);fill-rule:nonzero;"/>
                </g>
                <g transform="matrix(2.16418,0,0,2.16418,4.37742,-13.1141)">
                    <path d="M102.112,146.062C102.112,141.482 98.4,137.77 93.821,137.77L93.821,154.354C98.4,154.354 102.112,150.641 102.112,146.062Z" style="fill:rgb(221,220,220);fill-rule:nonzero;"/>
                </g>
                <g transform="matrix(2.16418,0,0,2.16418,4.37742,-13.1141)">
                    <path d="M91.346,146.062C91.346,146.781 90.763,147.364 90.043,147.364C89.324,147.364 88.741,146.781 88.741,146.062C88.741,145.342 89.324,144.759 90.043,144.759C90.763,144.759 91.346,145.342 91.346,146.062Z" style="fill:rgb(128,130,133);fill-rule:nonzero;"/>
                </g>
                <g transform="matrix(2.16418,0,0,2.16418,4.37742,-13.1141)">
                    <path d="M98.775,146.062C98.775,146.781 98.192,147.364 97.472,147.364C96.752,147.364 96.169,146.781 96.169,146.062C96.169,145.342 96.752,144.759 97.472,144.759C98.192,144.759 98.775,145.342 98.775,146.062Z" style="fill:rgb(128,130,133);fill-rule:nonzero;"/>
                </g>
                <g transform="matrix(2.16418,0,0,2.16418,4.37742,-13.1141)">
                    <path d="M93.821,138.031C89.392,138.031 85.789,141.633 85.789,146.062C85.789,150.491 89.392,154.093 93.821,154.093C98.249,154.093 101.853,150.491 101.853,146.062C101.853,141.633 98.249,138.031 93.821,138.031ZM93.821,154.614C89.104,154.614 85.268,150.778 85.268,146.062C85.268,141.346 89.104,137.509 93.821,137.509C98.536,137.509 102.373,141.346 102.373,146.062C102.373,150.778 98.536,154.614 93.821,154.614Z" style="fill:rgb(243,244,245);fill-rule:nonzero;"/>
                </g>
                <g transform="matrix(2.16418,0,0,2.16418,4.37742,-13.1141)">
                    <path d="M101.853,146.062C101.853,150.491 98.25,154.093 93.821,154.093L93.821,154.614C98.537,154.614 102.373,150.778 102.373,146.062C102.373,141.346 98.537,137.509 93.821,137.509L93.821,138.03C98.25,138.03 101.853,141.633 101.853,146.062Z" style="fill:white;fill-rule:nonzero;"/>
                </g>
                <g transform="matrix(2.16418,0,0,2.16418,4.37742,-13.1141)">
                    <path d="M110.198,174.427C107.979,174.427 106.575,172.745 106.557,172.721C106.396,172.524 106.426,172.235 106.623,172.074C106.82,171.914 107.11,171.943 107.271,172.14C107.361,172.25 109.321,174.555 112.241,172.927C115.248,171.249 114.833,167.855 114.829,167.821C114.795,167.569 114.972,167.337 115.225,167.304C115.478,167.272 115.707,167.448 115.741,167.7C115.746,167.74 116.236,171.751 112.69,173.731C111.782,174.237 110.943,174.427 110.198,174.427Z" style="fill:rgb(88,89,92);fill-rule:nonzero;"/>
                </g>
                <g transform="matrix(2.16418,0,0,2.16418,4.37742,-13.1141)">
                    <path d="M107.34,171.403L106.99,170.778L107.683,170.392L107.359,169.811L106.667,170.197L106.318,169.572L107.01,169.187L104.146,164.052L100.863,165.882L103.729,171.017L104.42,170.631L104.77,171.256L104.077,171.642L104.401,172.223L105.094,171.837L105.441,172.461L104.751,172.848L105.087,173.451L108.367,171.62L108.031,171.016L107.34,171.403Z" style="fill:rgb(65,64,67);fill-rule:nonzero;"/>
                </g>
                <g transform="matrix(2.16418,0,0,2.16418,4.37742,-13.1141)">
                    <path d="M105.091,153.236L91.161,161.007L94.826,167.577C96.208,166.806 97.985,167.362 98.797,168.818L98.942,169.077C99.813,170.636 101.718,171.232 103.198,170.406L106.768,168.414C108.249,167.588 108.742,165.654 107.872,164.094L107.726,163.835C106.914,162.378 107.374,160.575 108.757,159.804L105.091,153.236Z" style="fill:rgb(240,127,42);fill-rule:nonzero;"/>
                </g>
                <g transform="matrix(2.16418,0,0,2.16418,4.37742,-13.1141)">
                    <path d="M108.565,159.463L94.636,167.236L91.161,161.007L105.091,153.236L108.565,159.463Z" style="fill:rgb(224,109,26);fill-rule:nonzero;"/>
                </g>
                <g transform="matrix(2.16418,0,0,2.16418,4.37742,-13.1141)">
                    <path d="M96.183,158.557L94.409,159.547L91.231,153.854C91.112,153.641 91.083,153.389 91.15,153.154C91.216,152.919 91.374,152.721 91.587,152.602L91.754,152.508C92.198,152.261 92.759,152.42 93.006,152.864L96.183,158.557Z" style="fill:rgb(189,190,192);fill-rule:nonzero;"/>
                </g>
                <g transform="matrix(2.16418,0,0,2.16418,4.37742,-13.1141)">
                    <path d="M108.565,159.463L101.601,163.35L98.125,157.121L105.091,153.236L108.565,159.463Z" style="fill:rgb(240,127,42);fill-rule:nonzero;"/>
                </g>
                <g transform="matrix(2.16418,0,0,2.16418,4.37742,-13.1141)">
                    <path d="M102.144,155.232L100.369,156.222L97.192,150.53C97.073,150.317 97.044,150.065 97.11,149.83C97.177,149.595 97.335,149.396 97.547,149.278L97.714,149.185C97.928,149.065 98.179,149.036 98.415,149.103C98.649,149.169 98.848,149.326 98.967,149.54L102.144,155.232Z" style="fill:rgb(189,190,192);fill-rule:nonzero;"/>
                </g>
                <g transform="matrix(2.16418,0,0,2.16418,4.37742,-13.1141)">
                    <path d="M106.764,153.795L90.758,162.726L90.123,161.586L106.129,152.656L106.764,153.795Z" style="fill:rgb(185,87,16);fill-rule:nonzero;"/>
                </g>
                <g transform="matrix(2.16418,0,0,2.16418,4.37742,-13.1141)">
                    <path d="M91.754,152.51L91.586,152.603C91.142,152.851 90.984,153.412 91.231,153.855L92.595,156.3L94.371,155.309L93.005,152.865C92.758,152.421 92.198,152.262 91.754,152.51Z" style="fill:rgb(148,150,153);fill-rule:nonzero;"/>
                </g>
                <g transform="matrix(2.16418,0,0,2.16418,4.37742,-13.1141)">
                    <path d="M97.714,149.184L97.546,149.277C97.103,149.525 96.943,150.085 97.191,150.53L98.555,152.974L100.33,151.984L98.966,149.54C98.718,149.095 98.158,148.936 97.714,149.184Z" style="fill:rgb(148,150,153);fill-rule:nonzero;"/>
                </g>
            </g>
            <g transform="matrix(4.84893,0,0,4.84893,-5673.92,-3727.48)">
                <g transform="matrix(2.16418,0,0,2.16418,4.37742,-13.1141)">
                    <path d="M382.822,222.813L383.454,239.752L381.18,239.752L381.811,222.813L382.822,222.813Z" style="fill:rgb(110,110,111);fill-rule:nonzero;"/>
                </g>
                <g transform="matrix(2.16418,0,0,2.16418,4.37742,-13.1141)">
                    <path d="M382.386,223.366C382.386,223.366 382.651,223.376 383.084,223.45C383.3,223.488 383.562,223.535 383.849,223.61C384.138,223.683 384.459,223.774 384.799,223.891C385.14,224.004 385.502,224.143 385.876,224.305C386.252,224.463 386.634,224.651 387.015,224.875C387.394,225.1 387.763,225.372 388.136,225.653C388.508,225.933 388.89,226.213 389.279,226.481C390.056,227.015 390.84,227.541 391.559,228.059C392.282,228.569 392.951,229.057 393.524,229.474C394.671,230.313 395.422,230.893 395.422,230.893L395.315,231.079C395.315,231.079 394.438,230.717 393.139,230.145C392.49,229.856 391.733,229.521 390.93,229.149C390.121,228.786 389.275,228.37 388.422,227.963C387.996,227.76 387.563,227.571 387.133,227.388C386.704,227.207 386.284,227.02 385.899,226.805C385.516,226.588 385.16,226.351 384.836,226.104C384.51,225.862 384.209,225.618 383.939,225.378C383.668,225.143 383.429,224.911 383.223,224.696C383.013,224.485 382.841,224.282 382.7,224.115C382.421,223.776 382.278,223.551 382.278,223.551L382.386,223.366Z" style="fill:rgb(240,127,42);fill-rule:nonzero;"/>
                </g>
                <g transform="matrix(2.16418,0,0,2.16418,4.37742,-13.1141)">
                    <path d="M382.37,223.551C382.37,223.551 382.229,223.776 381.948,224.115C381.808,224.282 381.636,224.485 381.428,224.696C381.22,224.911 380.979,225.143 380.709,225.378C380.439,225.618 380.14,225.862 379.813,226.104C379.487,226.351 379.134,226.588 378.749,226.805C378.365,227.02 377.944,227.207 377.515,227.388C377.086,227.571 376.652,227.76 376.227,227.963C375.375,228.37 374.528,228.786 373.72,229.149C372.916,229.521 372.159,229.856 371.511,230.145C370.212,230.717 369.334,231.079 369.334,231.079L369.227,230.893C369.227,230.893 369.978,230.313 371.124,229.474C371.696,229.057 372.367,228.569 373.091,228.059C373.81,227.541 374.594,227.015 375.371,226.481C375.759,226.213 376.141,225.933 376.513,225.653C376.886,225.372 377.256,225.1 377.635,224.875C378.014,224.651 378.398,224.463 378.774,224.305C379.146,224.143 379.509,224.004 379.851,223.891C380.189,223.774 380.512,223.683 380.801,223.61C381.088,223.535 381.35,223.488 381.565,223.45C381.998,223.376 382.264,223.366 382.264,223.366L382.37,223.551Z" style="fill:rgb(240,127,42);fill-rule:nonzero;"/>
                </g>
                <g transform="matrix(2.16418,0,0,2.16418,4.37742,-13.1141)">
                    <path d="M382.194,223.459C382.194,223.459 382.071,223.223 381.919,222.811C381.845,222.605 381.756,222.356 381.678,222.069C381.597,221.782 381.515,221.458 381.447,221.105C381.376,220.752 381.315,220.369 381.27,219.964C381.219,219.56 381.191,219.134 381.196,218.693C381.203,218.252 381.253,217.796 381.311,217.333C381.369,216.871 381.424,216.401 381.46,215.93C381.536,214.99 381.603,214.048 381.693,213.167C381.774,212.285 381.864,211.462 381.94,210.756C382.096,209.345 382.226,208.406 382.226,208.406L382.439,208.406C382.439,208.406 382.565,209.346 382.715,210.758C382.787,211.464 382.875,212.287 382.951,213.169C383.039,214.052 383.1,214.993 383.173,215.933C383.209,216.404 383.26,216.875 383.316,217.337C383.373,217.8 383.42,218.256 383.426,218.698C383.429,219.138 383.399,219.565 383.347,219.969C383.301,220.374 383.237,220.755 383.165,221.108C383.096,221.461 383.013,221.784 382.931,222.071C382.853,222.358 382.762,222.608 382.686,222.813C382.531,223.223 382.408,223.459 382.408,223.459L382.194,223.459Z" style="fill:rgb(240,127,42);fill-rule:nonzero;"/>
                </g>
                <g transform="matrix(2.16418,0,0,2.16418,4.37742,-13.1141)">
                    <path d="M383.173,215.933C383.1,214.993 383.039,214.052 382.951,213.169C382.875,212.287 382.787,211.464 382.715,210.758C382.565,209.346 382.439,208.406 382.439,208.406L382.37,208.406L382.37,223.459L382.408,223.459C382.408,223.459 382.531,223.223 382.686,222.813C382.762,222.608 382.853,222.358 382.931,222.071C383.013,221.784 383.096,221.461 383.165,221.108C383.237,220.755 383.301,220.374 383.347,219.969C383.399,219.565 383.429,219.138 383.426,218.698C383.42,218.256 383.373,217.8 383.316,217.337C383.26,216.875 383.209,216.404 383.173,215.933Z" style="fill:rgb(223,107,24);fill-rule:nonzero;"/>
                </g>
                <g transform="matrix(2.16418,0,0,2.16418,4.37742,-13.1141)">
                    <path d="M375.361,226.467C374.582,226.999 373.798,227.524 373.077,228.041C372.352,228.548 371.683,229.036 371.107,229.452C369.96,230.287 369.208,230.866 369.208,230.866L369.242,230.926L382.278,223.399L382.259,223.366C382.259,223.366 381.994,223.375 381.562,223.448C381.346,223.485 381.084,223.532 380.795,223.607C380.508,223.679 380.187,223.77 379.846,223.885C379.503,223.999 379.142,224.135 378.77,224.297C378.393,224.454 378.008,224.641 377.628,224.865C377.249,225.09 376.877,225.36 376.506,225.639C376.132,225.92 375.75,226.2 375.361,226.467Z" style="fill:rgb(223,107,24);fill-rule:nonzero;"/>
                </g>
                <g transform="matrix(2.16418,0,0,2.16418,4.37742,-13.1141)">
                    <path d="M383.454,239.752L382.822,222.813L382.278,222.813L382.278,239.752L383.454,239.752Z" style="fill:rgb(121,121,121);fill-rule:nonzero;"/>
                </g>
                <g transform="matrix(2.16418,0,0,2.16418,4.37742,-13.1141)">
                    <path d="M389.233,226.467C390.013,226.999 390.797,227.524 391.517,228.041C392.242,228.548 392.912,229.036 393.486,229.452C394.634,230.287 395.386,230.866 395.386,230.866L395.353,230.926L382.315,223.399L382.334,223.366C382.334,223.366 382.6,223.375 383.033,223.448C383.248,223.485 383.51,223.532 383.798,223.607C384.086,223.679 384.407,223.77 384.748,223.885C385.09,223.999 385.452,224.135 385.826,224.297C386.201,224.454 386.586,224.641 386.965,224.865C387.345,225.09 387.717,225.36 388.089,225.639C388.462,225.92 388.844,226.2 389.233,226.467Z" style="fill:rgb(223,107,24);fill-rule:nonzero;"/>
                </g>
                <g transform="matrix(2.16418,0,0,2.16418,4.37742,-13.1141)">
                    <path d="M383.984,223.459C383.984,224.379 383.237,225.125 382.317,225.125C381.396,225.125 380.649,224.379 380.649,223.459C380.649,222.538 381.396,221.792 382.317,221.792C383.237,221.792 383.984,222.538 383.984,223.459Z" style="fill:rgb(110,110,111);fill-rule:nonzero;"/>
                </g>
                <g transform="matrix(2.16418,0,0,2.16418,4.37742,-13.1141)">
                    <rect x="379.954" y="239.108" width="4.726" height="1.288" style="fill:rgb(65,64,67);fill-rule:nonzero;"/>
                </g>
                <g transform="matrix(2.16418,0,0,2.16418,4.37742,-13.1141)">
                    <path d="M383.5,223.459C383.5,224.113 382.971,224.643 382.317,224.643C381.663,224.643 381.133,224.113 381.133,223.459C381.133,222.805 381.663,222.275 382.317,222.275C382.971,222.275 383.5,222.805 383.5,223.459Z" style="fill:rgb(65,64,67);fill-rule:nonzero;"/>
                </g>
                <g transform="matrix(2.16418,0,0,2.16418,4.37742,-13.1141)">
                    <path d="M370.435,222.575L371.322,246.402L368.122,246.402L369.011,222.575L370.435,222.575Z" style="fill:rgb(110,110,111);fill-rule:nonzero;"/>
                </g>
                <g transform="matrix(2.16418,0,0,2.16418,4.37742,-13.1141)">
                    <path d="M369.818,223.352C369.818,223.352 370.192,223.368 370.802,223.47C371.105,223.524 371.474,223.59 371.877,223.696C372.283,223.798 372.735,223.926 373.214,224.09C373.694,224.25 374.203,224.445 374.728,224.672C375.257,224.895 375.796,225.159 376.331,225.475C376.863,225.792 377.385,226.172 377.907,226.568C378.432,226.963 378.968,227.358 379.516,227.734C380.609,228.486 381.71,229.225 382.722,229.954C383.74,230.671 384.682,231.358 385.488,231.944C387.1,233.124 388.157,233.94 388.157,233.94L388.007,234.201C388.007,234.201 386.771,233.694 384.944,232.887C384.032,232.482 382.968,232.01 381.838,231.487C380.699,230.975 379.509,230.391 378.311,229.819C377.712,229.534 377.102,229.266 376.498,229.01C375.893,228.754 375.303,228.494 374.762,228.191C374.222,227.886 373.723,227.551 373.266,227.204C372.807,226.864 372.385,226.52 372.005,226.184C371.623,225.851 371.286,225.524 370.995,225.223C370.701,224.926 370.46,224.641 370.262,224.405C369.868,223.93 369.669,223.614 369.669,223.614L369.818,223.352Z" style="fill:rgb(240,127,42);fill-rule:nonzero;"/>
                </g>
                <g transform="matrix(2.16418,0,0,2.16418,4.37742,-13.1141)">
                    <path d="M369.798,223.614C369.798,223.614 369.599,223.93 369.204,224.405C369.007,224.641 368.766,224.926 368.471,225.223C368.179,225.524 367.842,225.851 367.461,226.184C367.082,226.52 366.659,226.864 366.199,227.204C365.743,227.551 365.245,227.886 364.704,228.191C364.162,228.494 363.572,228.754 362.969,229.01C362.364,229.266 361.754,229.534 361.155,229.819C359.957,230.391 358.767,230.975 357.629,231.487C356.499,232.01 355.434,232.482 354.522,232.887C352.695,233.694 351.46,234.201 351.46,234.201L351.31,233.94C351.31,233.94 352.366,233.124 353.978,231.944C354.784,231.358 355.726,230.671 356.744,229.954C357.755,229.225 358.857,228.486 359.951,227.734C360.499,227.358 361.034,226.963 361.559,226.568C362.082,226.172 362.603,225.792 363.136,225.475C363.67,225.159 364.21,224.895 364.738,224.672C365.264,224.445 365.772,224.25 366.252,224.09C366.73,223.926 367.183,223.798 367.589,223.696C367.993,223.59 368.361,223.524 368.664,223.47C369.273,223.368 369.646,223.352 369.646,223.352L369.798,223.614Z" style="fill:rgb(240,127,42);fill-rule:nonzero;"/>
                </g>
                <g transform="matrix(2.16418,0,0,2.16418,4.37742,-13.1141)">
                    <path d="M369.55,223.483C369.55,223.483 369.377,223.151 369.163,222.572C369.058,222.282 368.933,221.93 368.822,221.527C368.709,221.124 368.594,220.668 368.499,220.171C368.398,219.675 368.313,219.137 368.249,218.569C368.178,218 368.139,217.4 368.146,216.78C368.156,216.16 368.227,215.518 368.309,214.867C368.39,214.215 368.466,213.554 368.52,212.893C368.625,211.57 368.717,210.247 368.846,209.005C368.959,207.765 369.086,206.608 369.192,205.616C369.411,203.63 369.594,202.308 369.594,202.308L369.894,202.308C369.894,202.308 370.07,203.632 370.282,205.618C370.384,206.61 370.506,207.769 370.614,209.009C370.738,210.25 370.825,211.574 370.926,212.897C370.977,213.559 371.049,214.221 371.128,214.873C371.207,215.524 371.275,216.166 371.282,216.786C371.287,217.407 371.245,218.006 371.172,218.575C371.105,219.143 371.018,219.68 370.916,220.176C370.818,220.672 370.701,221.127 370.587,221.53C370.476,221.934 370.348,222.285 370.242,222.575C370.026,223.153 369.852,223.483 369.852,223.483L369.55,223.483Z" style="fill:rgb(240,127,42);fill-rule:nonzero;"/>
                </g>
                <g transform="matrix(2.16418,0,0,2.16418,4.37742,-13.1141)">
                    <path d="M370.926,212.897C370.825,211.574 370.738,210.25 370.614,209.009C370.506,207.769 370.384,206.61 370.282,205.618C370.07,203.632 369.894,202.308 369.894,202.308L369.798,202.308L369.798,223.483L369.852,223.483C369.852,223.483 370.026,223.153 370.242,222.575C370.348,222.285 370.476,221.934 370.587,221.53C370.701,221.127 370.818,220.672 370.916,220.176C371.018,219.68 371.105,219.143 371.172,218.575C371.245,218.006 371.287,217.407 371.282,216.786C371.275,216.166 371.207,215.524 371.128,214.873C371.049,214.221 370.977,213.559 370.926,212.897Z" style="fill:rgb(223,107,24);fill-rule:nonzero;"/>
                </g>
                <g transform="matrix(2.16418,0,0,2.16418,4.37742,-13.1141)">
                    <path d="M359.938,227.713C358.842,228.463 357.738,229.2 356.727,229.928C355.705,230.643 354.763,231.327 353.955,231.913C352.341,233.087 351.283,233.903 351.283,233.903L351.33,233.987L369.669,223.399L369.642,223.352C369.642,223.352 369.269,223.366 368.659,223.468C368.355,223.521 367.987,223.586 367.583,223.692C367.177,223.793 366.726,223.92 366.246,224.083C365.766,224.243 365.256,224.436 364.73,224.663C364.201,224.883 363.661,225.147 363.127,225.46C362.593,225.778 362.071,226.157 361.547,226.551C361.022,226.946 360.485,227.339 359.938,227.713Z" style="fill:rgb(223,107,24);fill-rule:nonzero;"/>
                </g>
                <g transform="matrix(2.16418,0,0,2.16418,4.37742,-13.1141)">
                    <path d="M371.322,246.402L370.435,222.575L369.669,222.575L369.669,246.402L371.322,246.402Z" style="fill:rgb(121,121,121);fill-rule:nonzero;"/>
                </g>
                <g transform="matrix(2.16418,0,0,2.16418,4.37742,-13.1141)">
                    <path d="M379.452,227.713C380.547,228.463 381.65,229.2 382.663,229.928C383.683,230.643 384.626,231.327 385.435,231.913C387.048,233.087 388.105,233.903 388.105,233.903L388.058,233.987L369.72,223.399L369.747,223.352C369.747,223.352 370.12,223.366 370.73,223.468C371.032,223.521 371.401,223.586 371.806,223.692C372.213,223.793 372.664,223.92 373.143,224.083C373.623,224.243 374.133,224.436 374.657,224.663C375.187,224.883 375.728,225.147 376.262,225.46C376.795,225.778 377.317,226.157 377.841,226.551C378.367,226.946 378.902,227.339 379.452,227.713Z" style="fill:rgb(223,107,24);fill-rule:nonzero;"/>
                </g>
                <g transform="matrix(2.16418,0,0,2.16418,4.37742,-13.1141)">
                    <path d="M372.067,223.483C372.067,224.778 371.018,225.829 369.722,225.829C368.427,225.829 367.377,224.778 367.377,223.483C367.377,222.188 368.427,221.137 369.722,221.137C371.018,221.137 372.067,222.188 372.067,223.483Z" style="fill:rgb(110,110,111);fill-rule:nonzero;"/>
                </g>
                <g transform="matrix(2.16418,0,0,2.16418,4.37742,-13.1141)">
                    <rect x="366.399" y="245.496" width="6.647" height="1.812" style="fill:rgb(65,64,67);fill-rule:nonzero;"/>
                </g>
                <g transform="matrix(2.16418,0,0,2.16418,4.37742,-13.1141)">
                    <path d="M371.389,223.483C371.389,224.403 370.641,225.148 369.722,225.148C368.803,225.148 368.057,224.403 368.057,223.483C368.057,222.563 368.803,221.818 369.722,221.818C370.641,221.818 371.389,222.563 371.389,223.483Z" style="fill:rgb(65,64,67);fill-rule:nonzero;"/>
                </g>
            </g>
            <g transform="matrix(4.84893,0,0,4.84893,-8231.64,-2615.4)">
                <g transform="matrix(2.16418,0,0,2.16418,4.37742,-13.1141)">
                    <path d="M344.679,315.097L366.045,315.097L356.554,290.314L354.168,290.314L344.679,315.097ZM367.727,316.255L342.996,316.255L353.372,289.157L357.351,289.157L367.727,316.255Z" style="fill:rgb(111,111,112);fill-rule:nonzero;"/>
                </g>
                <g transform="matrix(2.16418,0,0,2.16418,4.37742,-13.1141)">
                    <rect x="352.242" y="293.146" width="6.194" height="1.157" style="fill:rgb(111,111,112);fill-rule:nonzero;"/>
                </g>
                <g transform="matrix(2.16418,0,0,2.16418,4.37742,-13.1141)">
                    <rect x="349.053" y="301.478" width="12.485" height="1.156" style="fill:rgb(111,111,112);fill-rule:nonzero;"/>
                </g>
                <g transform="matrix(2.16418,0,0,2.16418,4.37742,-13.1141)">
                    <path d="M366.623,316.021L348.788,302.401L349.315,301.712L367.148,315.332L366.623,316.021Z" style="fill:rgb(111,111,112);fill-rule:nonzero;"/>
                </g>
                <g transform="matrix(2.16418,0,0,2.16418,4.37742,-13.1141)">
                    <path d="M344.102,316.02L343.571,315.333L361.272,301.712L361.803,302.4L344.102,316.02Z" style="fill:rgb(111,111,112);fill-rule:nonzero;"/>
                </g>
                <g transform="matrix(2.16418,0,0,2.16418,4.37742,-13.1141)">
                    <path d="M361.248,302.379L351.953,294.048L352.532,293.401L361.827,301.733L361.248,302.379Z" style="fill:rgb(111,111,112);fill-rule:nonzero;"/>
                </g>
                <g transform="matrix(2.16418,0,0,2.16418,4.37742,-13.1141)">
                    <path d="M349.34,302.38L348.764,301.731L358.147,293.4L358.725,294.048L349.34,302.38Z" style="fill:rgb(111,111,112);fill-rule:nonzero;"/>
                </g>
                <g transform="matrix(2.16418,0,0,2.16418,4.37742,-13.1141)">
                    <path d="M370.215,299.387L371.718,297.204L350.085,282.278L348.582,284.462L370.215,299.387Z" style="fill:rgb(111,111,112);fill-rule:nonzero;"/>
                </g>
                <g transform="matrix(2.16418,0,0,2.16418,4.37742,-13.1141)">
                    <path d="M368.957,301.215L371.718,297.204L367.381,294.218L368.957,301.215Z" style="fill:rgb(111,111,112);fill-rule:nonzero;"/>
                </g>
                <g transform="matrix(2.16418,0,0,2.16418,4.37742,-13.1141)">
                    <rect x="339.998" y="292.297" width="0.578" height="23.379" style="fill:rgb(38,70,100);fill-rule:nonzero;"/>
                </g>
                <g transform="matrix(2.16418,0,0,2.16418,4.37742,-13.1141)">
                    <path d="M341.397,301.017C341.397,301.95 340.868,302.705 340.217,302.705C339.564,302.705 339.037,301.95 339.037,301.017C339.037,300.085 339.564,299.33 340.217,299.33C340.868,299.33 341.397,300.085 341.397,301.017Z" style="fill:rgb(38,70,100);fill-rule:nonzero;"/>
                </g>
                <g transform="matrix(2.16418,0,0,2.16418,4.37742,-13.1141)">
                    <rect x="339.037" y="310.469" width="2.36" height="5.207" style="fill:rgb(111,111,112);fill-rule:nonzero;"/>
                </g>
                <g transform="matrix(2.16418,0,0,2.16418,4.37742,-13.1141)">
                    <rect x="368.839" y="300.511" width="0.578" height="11.718" style="fill:rgb(38,70,100);fill-rule:nonzero;"/>
                </g>
                <g transform="matrix(2.16418,0,0,2.16418,4.37742,-13.1141)">
                    <rect x="366.741" y="311.047" width="6.002" height="5.208" style="fill:rgb(240,127,42);fill-rule:nonzero;"/>
                </g>
                <g transform="matrix(2.16418,0,0,2.16418,4.37742,-13.1141)">
                    <rect x="337.81" y="314.808" width="34.933" height="1.736" style="fill:rgb(111,111,112);fill-rule:nonzero;"/>
                </g>
                <g transform="matrix(2.16418,0,0,2.16418,4.37742,-13.1141)">
                    <path d="M346.559,276.544L342.571,282.338C340.585,285.228 339.687,288.738 340.023,292.297L340.566,292.3C344.015,291.369 346.553,289.253 348.538,286.367L352.49,280.625L346.559,276.544Z" style="fill:rgb(111,111,112);fill-rule:nonzero;"/>
                </g>
                <g transform="matrix(2.16418,0,0,2.16418,4.37742,-13.1141)">
                    <rect x="369.96" y="298.282" width="0.578" height="15.068" style="fill:rgb(38,70,100);fill-rule:nonzero;"/>
                </g>
                <g transform="matrix(2.16418,0,0,2.16418,4.37742,-13.1141)">
                    <path d="M347.347,285.547C345.683,287.965 343.73,289.597 341.406,290.504C341.47,287.869 342.284,285.308 343.764,283.158L346.93,278.556L350.478,280.997L347.347,285.547Z" style="fill:rgb(240,127,42);fill-rule:nonzero;"/>
                </g>
                <g transform="matrix(2.16418,0,0,2.16418,4.37742,-13.1141)">
                    <path d="M370.548,312.82C370.548,313.279 370.176,313.651 369.717,313.651C369.257,313.651 368.884,313.279 368.884,312.82C368.884,312.36 369.257,311.988 369.717,311.988C370.176,311.988 370.548,312.36 370.548,312.82Z" style="fill:rgb(9,101,126);fill-rule:nonzero;"/>
                </g>
                <g transform="matrix(2.16418,0,0,2.16418,4.37742,-13.1141)">
                    <path d="M369.717,311.843C369.179,311.843 368.74,312.282 368.74,312.82C368.74,313.358 369.179,313.796 369.717,313.796C370.256,313.796 370.693,313.358 370.693,312.82C370.693,312.282 370.256,311.843 369.717,311.843ZM369.717,314.085C369.019,314.085 368.451,313.517 368.451,312.82C368.451,312.122 369.019,311.554 369.717,311.554C370.414,311.554 370.982,312.122 370.982,312.82C370.982,313.517 370.414,314.085 369.717,314.085Z" style="fill:rgb(9,124,140);fill-rule:nonzero;"/>
                </g>
            </g>
            <g transform="matrix(5.76419,0,0,5.76419,-5493.88,-3462.54)">
                <g transform="matrix(2.16418,0,0,2.16418,4.37742,-13.1141)">
                    <rect x="209.393" y="373.068" width="36.267" height="6.135" style="fill:rgb(248,149,29);fill-rule:nonzero;"/>
                </g>
                <g transform="matrix(2.16418,0,0,2.16418,4.37742,-13.1141)">
                    <path d="M232.758,367.199L227.437,367.199L222.117,367.199L216.795,372.278L216.795,380.623L222.117,386.669L232.758,386.669L238.08,380.623L238.08,372.278L232.758,367.199Z" style="fill:rgb(248,149,29);fill-rule:nonzero;"/>
                </g>
                <g transform="matrix(2.16418,0,0,2.16418,4.37742,-13.1141)">
                    <rect x="219.335" y="358.49" width="16.446" height="2.904" style="fill:rgb(221,101,15);fill-rule:nonzero;"/>
                </g>
                <g transform="matrix(2.16418,0,0,2.16418,4.37742,-13.1141)">
                    <rect x="224.655" y="363.933" width="5.565" height="3.266" style="fill:rgb(221,101,15);fill-rule:nonzero;"/>
                </g>
                <g transform="matrix(2.16418,0,0,2.16418,4.37742,-13.1141)">
                    <rect x="207.526" y="371.202" width="1.867" height="10.222" style="fill:rgb(111,111,112);fill-rule:nonzero;"/>
                </g>
                <g transform="matrix(2.16418,0,0,2.16418,4.37742,-13.1141)">
                    <rect x="226.772" y="360.91" width="1.875" height="3.689" style="fill:rgb(248,149,29);fill-rule:nonzero;"/>
                </g>
                <g transform="matrix(2.16418,0,0,2.16418,4.37742,-13.1141)">
                    <rect x="245.66" y="371.202" width="1.866" height="10.222" style="fill:rgb(111,111,112);fill-rule:nonzero;"/>
                </g>
                <g transform="matrix(2.16418,0,0,2.16418,4.37742,-13.1141)">
                    <path d="M227.437,367.199L232.758,367.199L238.08,372.278L238.08,380.623L232.758,386.669L227.437,386.669L227.437,367.199Z" style="fill:rgb(221,101,15);fill-rule:nonzero;"/>
                </g>
            </g>
            <g transform="matrix(5.51266,0,0,5.51266,-5406.33,-3650.73)">
                <g transform="matrix(2.16418,0,0,2.16418,4.37742,-13.1141)">
                    <path d="M316.384,360.164L298.194,339.088L294.691,342.111L312.881,363.188L316.384,360.164Z" style="fill:rgb(240,127,42);fill-rule:nonzero;"/>
                </g>
                <g transform="matrix(2.16418,0,0,2.16418,4.37742,-13.1141)">
                    <path d="M297.677,332.784C299.853,335.309 299.57,339.122 297.048,341.299C294.522,343.478 290.709,343.196 288.531,340.673C286.439,338.247 286.613,334.633 288.871,332.422L291.027,338.141C291.608,339.679 296.664,337.772 296.086,336.233L294.019,330.758C295.39,330.971 296.696,331.648 297.677,332.784Z" style="fill:rgb(240,127,42);fill-rule:nonzero;"/>
                </g>
                <g transform="matrix(2.16418,0,0,2.16418,4.37742,-13.1141)">
                    <path d="M313.457,360.311C315.355,358.672 318.226,358.883 319.867,360.785C321.442,362.609 321.308,365.327 319.614,366.993L317.989,362.69C317.552,361.532 313.746,362.971 314.181,364.125L315.738,368.247C314.704,368.087 313.72,367.577 312.985,366.723C311.347,364.824 311.557,361.952 313.457,360.311Z" style="fill:rgb(240,127,42);fill-rule:nonzero;"/>
                </g>
                <g transform="matrix(2.16418,0,0,2.16418,4.37742,-13.1141)">
                    <path d="M315.941,352.417L315.403,351.805C315.13,351.493 314.763,351.272 314.357,351.189C314.259,351.161 314.161,351.146 314.06,351.14C313.946,351.135 313.833,351.135 313.727,351.15L313.691,351.155L313.99,350.906L314.205,350.719C314.973,350.025 315.061,348.832 314.391,348.025L313.872,347.399C313.486,346.935 312.929,346.69 312.365,346.69C312.195,346.69 312.023,346.714 311.857,346.758L312.509,346.264C312.709,346.108 312.875,345.922 312.998,345.716C313.404,345.051 313.379,344.18 312.88,343.521L312.386,342.87C312.072,342.458 311.603,342.19 311.09,342.117C310.797,342.078 310.502,342.107 310.229,342.195C310.019,342.263 309.823,342.367 309.642,342.499L309.705,342.45C309.916,342.293 310.082,342.097 310.214,341.872L310.219,341.868C310.342,341.647 310.43,341.408 310.464,341.154C310.532,340.64 310.395,340.118 310.077,339.706L309.583,339.056C308.932,338.196 307.705,338.029 306.845,338.684L303.637,341.129L303.606,341.151C303.408,341.235 303.217,341.334 303.044,341.469L296.095,346.905C295.188,347.614 294.562,348.62 294.323,349.745L293.854,351.962C293.649,352.926 293.16,353.804 292.449,354.484L280.888,365.537L290.661,375.758L302.397,364.538C302.998,363.963 303.735,363.551 304.54,363.34L305.994,362.959C306.717,362.771 307.387,362.419 307.951,361.933L309.96,360.199L309.994,360.237L314.537,356.25L314.542,356.247L314.637,356.166L314.657,356.144L315.76,355.18C316.571,354.466 316.654,353.228 315.941,352.417Z" style="fill:rgb(254,217,174);fill-rule:nonzero;stroke:rgb(111,111,112);stroke-width:0.59px;stroke-linecap:butt;stroke-miterlimit:1.41421;"/>
                </g>
                <g transform="matrix(2.16418,0,0,2.16418,4.37742,-13.1141)">
                    <path d="M310.229,342.195C309.887,342.483 309.52,342.797 309.148,343.099C308.806,343.389 308.468,343.687 308.136,343.951L308.043,344.02C307.745,344.245 307.451,344.44 307.188,344.607C306.615,344.968 306.193,345.16 306.193,345.16L306.18,345.134L306.175,345.134L306.164,345.12C306.164,345.12 306.453,344.758 306.947,344.298C307.178,344.083 307.445,343.848 307.745,343.609L307.828,343.545C308.165,343.296 308.541,343.046 308.908,342.787C309.358,342.469 309.808,342.151 310.214,341.872C310.082,342.097 309.916,342.293 309.705,342.45L309.642,342.499C309.823,342.367 310.019,342.263 310.229,342.195Z" style="fill:rgb(240,190,150);fill-rule:nonzero;"/>
                </g>
                <g transform="matrix(2.16418,0,0,2.16418,4.37742,-13.1141)">
                    <path d="M290.661,375.758L302.397,364.538C302.998,363.963 303.735,363.551 304.54,363.34L305.994,362.959C306.717,362.771 307.387,362.419 307.951,361.933L309.96,360.199L309.994,360.237L314.537,356.25L314.542,356.247L314.637,356.166L314.657,356.144L315.76,355.18C316.571,354.466 316.654,353.228 315.941,352.417L315.403,351.805C315.13,351.493 314.763,351.272 314.357,351.189C314.259,351.161 314.161,351.146 314.06,351.14C313.946,351.135 313.833,351.135 313.727,351.15L313.691,351.155L313.99,350.906L314.205,350.719C314.973,350.025 315.061,348.832 314.391,348.025L313.872,347.399C313.486,346.935 312.929,346.69 312.365,346.69C312.195,346.69 312.023,346.714 311.857,346.758L312.509,346.264C312.709,346.108 312.875,345.922 312.998,345.716C313.404,345.051 313.379,344.18 312.88,343.521L312.604,343.159L285.452,370.311L290.661,375.758Z" style="fill:rgb(255,225,185);fill-rule:nonzero;"/>
                </g>
                <g transform="matrix(2.16418,0,0,2.16418,4.37742,-13.1141)">
                    <path d="M312.998,345.716C312.875,345.922 312.709,346.108 312.509,346.264L311.857,346.758C312.023,346.714 312.195,346.69 312.365,346.69C312.142,346.885 311.916,347.077 311.701,347.248C311.402,347.478 311.109,347.678 310.85,347.839L310.752,347.903C310.175,348.27 309.755,348.456 309.755,348.456L309.725,348.416L309.808,348.318C309.882,348.235 310.004,348.093 310.175,347.922L310.18,347.917C310.277,347.819 310.386,347.712 310.513,347.595L310.61,347.506C310.836,347.295 311.099,347.071 311.388,346.846C311.726,346.592 312.106,346.347 312.474,346.088C312.65,345.961 312.82,345.839 312.998,345.716Z" style="fill:rgb(240,190,150);fill-rule:nonzero;"/>
                </g>
                <g transform="matrix(2.16418,0,0,2.16418,4.37742,-13.1141)">
                    <path d="M314.357,351.189C314.244,351.262 314.138,351.331 314.034,351.394C313.893,351.487 313.76,351.566 313.638,351.634C313.276,351.839 313.042,351.948 313.042,351.948L313.007,351.909C313.007,351.909 313.174,351.703 313.467,351.404C313.545,351.327 313.628,351.244 313.727,351.15C313.833,351.135 313.946,351.135 314.06,351.14C314.161,351.146 314.259,351.161 314.357,351.189Z" style="fill:rgb(240,190,150);fill-rule:nonzero;"/>
                </g>
            </g>
            <g transform="matrix(1.05769,0,0,1.05769,-2820.71,-2188.12)">
                <g>
                    <g>
                        <path d="M330,42L294,42L294,60C294,69.941 285.941,78 276,78C266.059,78 258,69.941 258,60L258,42L198,42L198,60C198,69.941 189.941,78 180,78C170.059,78 162,69.941 162,60L162,42L102,42L102,60C102,69.941 93.941,78 84,78C74.059,78 66,69.941 66,60L66,42L30,42C16.746,42 6,52.746 6,66L6,114L354,114L354,66C354,52.746 343.254,42 330,42Z" style="fill:rgb(240,127,42);fill-rule:nonzero;"/>
                        <path d="M132,156L156,156C159.324,156 162,158.676 162,162L162,180C162,183.324 159.324,186 156,186L132,186C128.676,186 126,183.324 126,180L126,162C126,158.676 128.676,156 132,156Z" style="fill:rgb(240,127,42);fill-rule:nonzero;"/>
                        <path d="M60,156L84,156C87.324,156 90,158.676 90,162L90,180C90,183.324 87.324,186 84,186L60,186C56.676,186 54,183.324 54,180L54,162C54,158.676 56.676,156 60,156Z" style="fill:rgb(240,127,42);fill-rule:nonzero;"/>
                        <path d="M276,156L300,156C303.324,156 306,158.676 306,162L306,180C306,183.324 303.324,186 300,186L276,186C272.676,186 270,183.324 270,180L270,162C270,158.676 272.676,156 276,156Z" style="fill:rgb(240,127,42);fill-rule:nonzero;"/>
                        <path d="M132,210L156,210C159.324,210 162,212.676 162,216L162,234C162,237.324 159.324,240 156,240L132,240C128.676,240 126,237.324 126,234L126,216C126,212.676 128.676,210 132,210Z" style="fill:rgb(240,127,42);fill-rule:nonzero;"/>
                        <path d="M60,210L84,210C87.324,210 90,212.676 90,216L90,234C90,237.324 87.324,240 84,240L60,240C56.676,240 54,237.324 54,234L54,216C54,212.676 56.676,210 60,210Z" style="fill:rgb(240,127,42);fill-rule:nonzero;"/>
                        <path d="M132,264L156,264C159.324,264 162,266.676 162,270L162,288C162,291.324 159.324,294 156,294L132,294C128.676,294 126,291.324 126,288L126,270C126,266.676 128.676,264 132,264Z" style="fill:rgb(240,127,42);fill-rule:nonzero;"/>
                        <path d="M204,156L228,156C231.324,156 234,158.676 234,162L234,180C234,183.324 231.324,186 228,186L204,186C200.676,186 198,183.324 198,180L198,162C198,158.676 200.676,156 204,156Z" style="fill:rgb(240,127,42);fill-rule:nonzero;"/>
                        <path d="M204,210L228,210C231.324,210 234,212.676 234,216L234,234C234,237.324 231.324,240 228,240L204,240C200.676,240 198,237.324 198,234L198,216C198,212.676 200.676,210 204,210Z" style="fill:rgb(240,127,42);fill-rule:nonzero;"/>
                        <path d="M60,264L84,264C87.324,264 90,266.676 90,270L90,288C90,291.324 87.324,294 84,294L60,294C56.676,294 54,291.324 54,288L54,270C54,266.676 56.676,264 60,264Z" style="fill:rgb(240,127,42);fill-rule:nonzero;"/>
                        <path d="M354,282C354,321.766 321.766,354 282,354C242.234,354 210,321.766 210,282C210,242.234 242.234,210 282,210C321.766,210 354,242.234 354,282Z" style="fill:rgb(240,127,42);fill-rule:nonzero;"/>
                        <path d="M330,36L300,36L300,24C300,10.746 289.254,0 276,0C262.746,0 252,10.746 252,24L252,36L204,36L204,24C204,10.746 193.254,0 180,0C166.746,0 156,10.746 156,24L156,36L108,36L108,24C108,10.746 97.254,0 84,0C70.746,0 60,10.746 60,24L60,36L30,36C13.43,36 0,49.43 0,66L0,306C0,322.57 13.43,336 30,336L198,336C201.312,336 204,333.312 204,330C204,326.688 201.312,324 198,324L30,324C20.07,323.969 12.031,315.93 12,306L12,120L348,120L348,222C348,225.312 350.688,228 354,228C357.312,228 360,225.312 360,222L360,66C360,49.43 346.57,36 330,36ZM264,24C264,17.371 269.371,12 276,12C282.629,12 288,17.371 288,24L288,60C288,66.629 282.629,72 276,72C269.371,72 264,66.629 264,60L264,24ZM168,24C168,17.371 173.371,12 180,12C186.629,12 192,17.371 192,24L192,60C192,66.629 186.629,72 180,72C173.371,72 168,66.629 168,60L168,24ZM72,24C72,17.371 77.371,12 84,12C90.629,12 96,17.371 96,24L96,60C96,66.629 90.629,72 84,72C77.371,72 72,66.629 72,60L72,24ZM348,108L12,108L12,66C12.031,56.07 20.07,48.031 30,48L60,48L60,60C60,73.254 70.746,84 84,84C97.254,84 108,73.254 108,60L108,48L156,48L156,60C156,73.254 166.746,84 180,84C193.254,84 204,73.254 204,60L204,48L252,48L252,60C252,73.254 262.746,84 276,84C289.254,84 300,73.254 300,60L300,48L330,48C339.93,48.031 347.969,56.07 348,66L348,108Z" style="fill:rgb(129,129,130);fill-rule:nonzero;"/>
                        <path d="M168,162C168,155.371 162.629,150 156,150L132,150C125.371,150 120,155.371 120,162L120,180C120,186.629 125.371,192 132,192L156,192C162.629,192 168,186.629 168,180L168,162ZM132,180L132,162L156,162L156,180L132,180Z" style="fill:rgb(111,111,112);fill-rule:nonzero;"/>
                        <path d="M96,162C96,155.371 90.629,150 84,150L60,150C53.371,150 48,155.371 48,162L48,180C48,186.629 53.371,192 60,192L84,192C90.629,192 96,186.629 96,180L96,162ZM60,180L60,162L84,162L84,180L60,180Z" style="fill:rgb(111,111,112);fill-rule:nonzero;"/>
                        <path d="M300,192C306.629,192 312,186.629 312,180L312,162C312,155.371 306.629,150 300,150L276,150C269.371,150 264,155.371 264,162L264,180C264,186.629 269.371,192 276,192L300,192ZM276,162L300,162L300,180L276,180L276,162Z" style="fill:rgb(111,111,112);fill-rule:nonzero;"/>
                        <path d="M168,216C168,209.371 162.629,204 156,204L132,204C125.371,204 120,209.371 120,216L120,234C120,240.629 125.371,246 132,246L156,246C162.629,246 168,240.629 168,234L168,216ZM132,234L132,216L156,216L156,234L132,234Z" style="fill:rgb(111,111,112);fill-rule:nonzero;"/>
                        <path d="M96,216C96,209.371 90.629,204 84,204L60,204C53.371,204 48,209.371 48,216L48,234C48,240.629 53.371,246 60,246L84,246C90.629,246 96,240.629 96,234L96,216ZM60,234L60,216L84,216L84,234L60,234Z" style="fill:rgb(111,111,112);fill-rule:nonzero;"/>
                        <path d="M156,258L132,258C125.371,258 120,263.371 120,270L120,288C120,294.629 125.371,300 132,300L156,300C162.629,300 168,294.629 168,288L168,270C168,263.371 162.629,258 156,258ZM132,288L132,270L156,270L156,288L132,288Z" style="fill:rgb(111,111,112);fill-rule:nonzero;"/>
                        <path d="M204,192L228,192C234.629,192 240,186.629 240,180L240,162C240,155.371 234.629,150 228,150L204,150C197.371,150 192,155.371 192,162L192,180C192,186.629 197.371,192 204,192ZM204,162L228,162L228,180L204,180L204,162Z" style="fill:rgb(111,111,112);fill-rule:nonzero;"/>
                        <path d="M192,234C192,240.629 197.371,246 204,246C207.312,246 210,243.312 210,240C210,236.688 207.312,234 204,234L204,216L228,216C231.312,216 234,213.312 234,210C234,206.688 231.312,204 228,204L204,204C197.371,204 192,209.371 192,216L192,234Z" style="fill:rgb(111,111,112);fill-rule:nonzero;"/>
                        <path d="M84,258L60,258C53.371,258 48,263.371 48,270L48,288C48,294.629 53.371,300 60,300L84,300C90.629,300 96,294.629 96,288L96,270C96,263.371 90.629,258 84,258ZM60,288L60,270L84,270L84,288L60,288Z" style="fill:rgb(111,111,112);fill-rule:nonzero;"/>
                        <path d="M282,204C250.453,204 222.012,223.004 209.938,252.152C197.863,281.297 204.539,314.848 226.844,337.156C249.152,359.461 282.703,366.137 311.848,354.062C340.996,341.988 360,313.547 360,282C359.949,238.941 325.059,204.051 282,204ZM282,348C255.305,348 231.238,331.918 221.023,307.258C210.809,282.594 216.457,254.207 235.332,235.332C254.207,216.457 282.594,210.809 307.258,221.023C331.918,231.238 348,255.305 348,282C347.957,318.434 318.434,347.957 282,348Z" style="fill:rgb(111,111,112);fill-rule:nonzero;"/>
                        <path d="M316.668,256.848L270,303.516L248.789,282.301C246.437,280.027 242.695,280.059 240.379,282.375C238.066,284.688 238.031,288.43 240.305,290.785L265.758,316.242C268.102,318.586 271.898,318.586 274.242,316.242L325.152,265.332C327.426,262.977 327.395,259.234 325.078,256.922C322.766,254.605 319.023,254.574 316.668,256.848Z" style="fill:white;fill-rule:nonzero;"/>
                    </g>
                </g>
            </g>
            <g transform="matrix(1.12803,0,0,1.12803,-4981.29,-653.828)">
                <clipPath id="_clip1">
                    <rect x="0" y="0" width="360" height="325"/>
                </clipPath>
                <g clip-path="url(#_clip1)">
                    <path d="M276,294C276,307.254 265.254,318 252,318C238.746,318 228,307.254 228,294C228,280.746 238.746,270 252,270C265.254,270 276,280.746 276,294Z" style="fill:rgb(240,127,42);fill-rule:nonzero;"/>
                    <path d="M156,294C156,307.254 145.254,318 132,318C118.746,318 108,307.254 108,294C108,280.746 118.746,270 132,270C145.254,270 156,280.746 156,294Z" style="fill:rgb(240,127,42);fill-rule:nonzero;"/>
                    <path d="M310.414,123.672L294,222L99.66,222L89.102,114L258.109,114C249.781,107.781 243.211,99.512 239.027,90L86.762,90L79.141,17.941C78.492,11.168 72.801,6 66,6L18,6C14.816,5.984 11.762,7.262 9.539,9.539C6.57,12.457 5.344,16.711 6.301,20.762C7.832,26.352 12.988,30.168 18.781,30L48.602,30C51.664,29.996 54.246,32.293 54.602,35.34L76.801,235.32C77.473,241.406 82.617,246.008 88.738,246L302.102,246C307.844,246.004 312.781,241.922 313.859,236.281L337.926,106.801C330.473,114.836 320.957,120.668 310.414,123.672Z" style="fill:rgb(240,127,42);fill-rule:nonzero;"/>
                    <path d="M294,0C257.559,0.023 228.023,29.559 228,66C228,72.094 228.867,78.152 230.578,84L92.16,84L85.141,17.34C84.18,7.492 75.895,-0.016 66,0L18,0C13.238,-0.031 8.668,1.875 5.34,5.281C0.891,9.645 -0.953,16.016 0.48,22.078C2.719,30.41 10.336,36.148 18.961,36L48.66,36L71.281,240.059C55.238,240.945 42.742,254.309 42.934,270.375C43.129,286.441 55.941,299.5 72,300L102.602,300C105.438,313.98 117.733,324.031 132,324.031C146.266,324.031 158.562,313.98 161.398,300L222.602,300C225.438,313.98 237.734,324.031 252,324.031C266.266,324.031 278.562,313.98 281.398,300L306,300C309.312,300 312,297.312 312,294C312,290.688 309.312,288 306,288L281.398,288C278.562,274.02 266.266,263.969 252,263.969C237.734,263.969 225.438,274.02 222.602,288L161.398,288C158.562,274.02 146.266,263.969 132,263.969C117.733,263.969 105.438,274.02 102.602,288L72,288C62.059,288 54,279.941 54,270C54,260.059 62.059,252 72,252L302.102,252C310.719,252.008 318.125,245.887 319.738,237.422L344.52,108.359C361.031,88.734 364.66,61.312 353.824,38.066C342.984,14.82 319.648,-0.027 294,0ZM252,276C259.281,276 265.844,280.387 268.629,287.113C271.414,293.836 269.875,301.578 264.727,306.727C259.578,311.875 251.836,313.414 245.113,310.629C238.387,307.844 234,301.281 234,294C234.031,284.07 242.07,276.031 252,276ZM132,276C139.281,276 145.844,280.387 148.629,287.113C151.414,293.836 149.875,301.578 144.727,306.727C139.578,311.875 131.836,313.414 125.113,310.629C118.386,307.844 114,301.281 114,294C114.031,284.07 122.07,276.031 132,276ZM307.98,235.141C307.434,237.957 304.969,239.996 302.102,240L83.398,240L60.539,34.621C59.84,28.559 54.699,23.988 48.602,24L18.961,24C15.918,24.156 13.148,22.266 12.18,19.379C11.648,17.332 12.297,15.164 13.859,13.738C14.934,12.605 16.438,11.973 18,12L66,12C69.738,12.023 72.852,14.879 73.199,18.602L80.82,90.602C81.129,93.656 83.691,95.984 86.762,96L235.262,96C237.441,100.27 240.078,104.293 243.121,108L89.102,108C87.406,108.004 85.793,108.723 84.66,109.98C83.531,111.242 82.969,112.91 83.102,114.602L93.719,222.602C94.027,225.656 96.59,227.984 99.66,228L294,228C296.949,228.008 299.469,225.871 299.941,222.961L315.719,128.281C320.664,126.516 325.395,124.203 329.82,121.379L307.98,235.141ZM204,180L204,156L247.32,156L244.621,180L204,180ZM243.301,192L240.602,216L204,216L204,192L243.301,192ZM204,144L204,120L251.281,120L248.64,144L204,144ZM151.379,180L148.68,156L192,156L192,180L151.379,180ZM192,192L192,216L155.398,216L152.699,192L192,192ZM147.359,144L144.719,120L192,120L192,144L147.359,144ZM136.621,156L139.32,180L101.578,180L99.238,156L136.621,156ZM98.039,144L95.699,120L132.602,120L135.301,144L98.039,144ZM140.641,192L143.281,216L105.121,216L102.781,192L140.641,192ZM298.922,156L294.898,180L256.68,180L259.379,156L298.922,156ZM260.699,144L262.922,124.199C275.164,130.887 289.266,133.375 303.059,131.281L300.898,144L260.699,144ZM292.922,192L288.898,216L252.719,216L255.359,192L292.922,192ZM294,120C272.16,120 252.469,106.844 244.109,86.664C235.754,66.488 240.371,43.262 255.816,27.816C271.262,12.371 294.488,7.754 314.664,16.109C334.844,24.469 348,44.16 348,66C347.953,95.805 323.805,119.953 294,120Z" style="fill:rgb(111,111,112);fill-rule:nonzero;"/>
                    <path d="M288,72L288,102C288,105.312 290.688,108 294,108C297.312,108 300,105.312 300,102L300,72L330,72C333.312,72 336,69.312 336,66C336,62.688 333.312,60 330,60L300,60L300,30C300,26.688 297.312,24 294,24C290.688,24 288,26.688 288,30L288,60L258,60C254.688,60 252,62.688 252,66C252,69.312 254.688,72 258,72L288,72Z" style="fill:rgb(240,127,42);fill-rule:nonzero;"/>
                </g>
            </g>
            <g transform="matrix(1.07009,0,0,1.07009,-3929.23,-2237.53)">
                <clipPath id="_clip2">
                    <rect x="0" y="0" width="360" height="360"/>
                </clipPath>
                <g clip-path="url(#_clip2)">
                    <path d="M271.555,196.445C259.238,192.691 249.863,182.652 246.953,170.113L160.559,256.559L162,258L210,258L271.555,196.445Z" style="fill:rgb(240,127,42);fill-rule:nonzero;"/>
                    <path d="M234,270C234,263.371 228.629,258 222,258L150,258C143.371,258 138,263.371 138,270L138,318L234,318L234,270Z" style="fill:rgb(240,127,42);fill-rule:nonzero;"/>
                    <path d="M172.859,24L36,24C26.059,24 18,32.059 18,42C18,51.941 26.059,60 36,60L172.859,60C166.379,48.875 166.379,35.125 172.859,24Z" style="fill:rgb(240,127,42);fill-rule:nonzero;"/>
                    <path d="M48,72C48,78.629 53.371,84 60,84L84,84C90.629,84 96,78.629 96,72L96,60L48,60L48,72Z" style="fill:rgb(240,127,42);fill-rule:nonzero;"/>
                    <path d="M280.48,126.078L236.152,58.105C230.586,69.227 219.668,76.688 207.281,77.832L250.648,144.336C256.766,133.496 268.047,126.59 280.48,126.078Z" style="fill:rgb(240,127,42);fill-rule:nonzero;"/>
                    <path d="M191.43,29.141L180,36L186.445,45.883C185.062,39.812 186.953,33.465 191.43,29.141Z" style="fill:rgb(240,127,42);fill-rule:nonzero;"/>
                    <path d="M84,123.328L84,84L60,84L60,123.328C67.383,118.891 76.617,118.891 84,123.328Z" style="fill:rgb(240,127,42);fill-rule:nonzero;"/>
                    <path d="M330,342L318,342C314.688,342 312,339.312 312,336C312,332.688 314.688,330 318,330L330,330C333.312,330 336,332.688 336,336C336,339.312 333.312,342 330,342Z" style="fill:rgb(240,127,42);fill-rule:nonzero;"/>
                    <path d="M336,312L240,312L240,270C239.973,260.957 233.23,253.344 224.258,252.227L273.383,203.102C284.934,205.613 297.008,203.148 306.641,196.301C316.277,189.457 322.582,178.871 324.012,167.137C325.441,155.406 321.859,143.613 314.148,134.656C306.438,125.703 295.309,120.41 283.492,120.078L243.156,57.078C250.836,37.285 242.508,14.879 223.762,4.91C205.02,-5.059 181.781,0.566 169.668,18L36,18C22.746,18 12,28.746 12,42C12,55.254 22.746,66 36,66L42,66L42,72C42.031,79.602 46.832,86.363 54,88.895L54,120.156C48.152,124.516 44.098,130.863 42.602,138L30,138C27.996,138 26.121,139 25.008,140.672L1.008,176.672C-0.336,178.688 -0.336,181.312 1.008,183.328L37.008,237.328C37.891,238.652 39.266,239.574 40.824,239.883C42.387,240.195 44.008,239.875 45.328,238.992C46.652,238.109 47.574,236.734 47.883,235.176C48.195,233.613 47.875,231.992 46.992,230.672L13.199,180L33.199,150L42.602,150C45.438,163.98 57.734,174.031 72,174.031C86.266,174.031 98.562,163.98 101.398,150L110.797,150L130.801,180L97.02,230.672C96.137,231.992 95.816,233.613 96.129,235.176C96.438,236.734 97.359,238.109 98.684,238.992C101.438,240.832 105.164,240.086 107.004,237.328L143.004,183.328C144.348,181.312 144.348,178.688 143.004,176.672L119.004,140.672C117.886,138.996 116.011,137.996 114,138L101.398,138C99.902,130.863 95.848,124.516 90,120.156L90,88.895C97.168,86.363 101.969,79.602 102,72L102,66L169.668,66C177.348,77.016 189.84,83.691 203.27,83.953L243.098,146.203C240.223,153.113 239.316,160.688 240.48,168.086L156.629,252L150,252C140.059,252 132,260.059 132,270L132,312L24,312C10.746,312 0,322.746 0,336C0,349.254 10.746,360 24,360L336,360C349.254,360 360,349.254 360,336C360,322.746 349.254,312 336,312ZM312,162C312,174.133 304.691,185.074 293.48,189.715C282.27,194.359 269.367,191.793 260.785,183.215C252.207,174.633 249.64,161.73 254.285,150.52C258.926,139.309 269.867,132 282,132C298.559,132.02 311.98,145.441 312,162ZM72,162C64.719,162 58.156,157.613 55.371,150.887C52.586,144.164 54.125,136.422 59.273,131.273C64.422,126.125 72.164,124.586 78.887,127.371C85.613,130.156 90,136.719 90,144C90,153.941 81.941,162 72,162ZM72,114C69.984,113.996 67.977,114.199 66,114.602L66,90L78,90L78,114.602C76.023,114.199 74.016,113.996 72,114ZM90,72C90,75.312 87.312,78 84,78L60,78C56.688,78 54,75.312 54,72L54,66L90,66L90,72ZM163.746,54L36,54C29.371,54 24,48.629 24,42C24,35.371 29.371,30 36,30L163.746,30C161.418,37.832 161.418,46.168 163.746,54ZM178.062,57L178.062,56.957C172.695,47.719 172.695,36.309 178.062,27.066L178.062,27.023C184.852,15.266 198.691,9.531 211.809,13.047C224.922,16.559 234.043,28.445 234.043,42.023C234.043,55.602 224.922,67.488 211.809,71C198.691,74.516 184.852,68.781 178.062,57.023L178.062,57ZM216.367,82.129C224.195,79.703 231.145,75.047 236.363,68.73L270.281,121.691C262.406,123.988 255.379,128.543 250.062,134.789L216.367,82.129ZM244.566,180.965C248.281,188.246 254.031,194.289 261.113,198.367L207.516,252L173.598,252L244.566,180.965ZM144,270C144,266.688 146.688,264 150,264L222,264C225.312,264 228,266.688 228,270L228,312L144,312L144,270ZM336,348L24,348C17.371,348 12,342.629 12,336C12,329.371 17.371,324 24,324L336,324C342.629,324 348,329.371 348,336C348,342.629 342.629,348 336,348Z" style="fill:rgb(111,111,112);fill-rule:nonzero;"/>
                    <path d="M258,162C258,171.707 263.848,180.457 272.816,184.172C281.785,187.887 292.105,185.836 298.969,178.969C305.836,172.105 307.887,161.785 304.172,152.816C300.457,143.848 291.707,138 282,138C268.746,138 258,148.746 258,162ZM294,162C294,166.855 291.078,171.23 286.594,173.086C282.109,174.945 276.945,173.918 273.516,170.484C270.082,167.055 269.055,161.891 270.914,157.406C272.77,152.922 277.145,150 282,150C288.629,150 294,155.371 294,162Z" style="fill:rgb(240,127,42);fill-rule:nonzero;"/>
                    <path d="M228,42C228,32.293 222.152,23.543 213.184,19.828C204.215,16.113 193.895,18.164 187.031,25.031C180.164,31.895 178.113,42.215 181.828,51.184C185.543,60.152 194.293,66 204,66C217.254,66 228,55.254 228,42ZM192,42C192,37.145 194.922,32.77 199.406,30.914C203.891,29.055 209.055,30.082 212.484,33.516C215.918,36.945 216.945,42.109 215.086,46.594C213.23,51.078 208.855,54 204,54C197.371,54 192,48.629 192,42Z" style="fill:rgb(240,127,42);fill-rule:nonzero;"/>
                    <path d="M294,330L210,330C206.688,330 204,332.688 204,336C204,339.312 206.688,342 210,342L294,342C297.312,342 300,339.312 300,336C300,332.688 297.312,330 294,330Z" style="fill:rgb(240,127,42);fill-rule:nonzero;"/>
                    <path d="M42,330L30,330C26.688,330 24,332.688 24,336C24,339.312 26.688,342 30,342L42,342C45.312,342 48,339.312 48,336C48,332.688 45.312,330 42,330Z" style="fill:rgb(240,127,42);fill-rule:nonzero;"/>
                    <path d="M150,330L66,330C62.688,330 60,332.688 60,336C60,339.312 62.688,342 66,342L150,342C153.312,342 156,339.312 156,336C156,332.688 153.312,330 150,330Z" style="fill:rgb(240,127,42);fill-rule:nonzero;"/>
                    <path d="M186,330L174,330C170.688,330 168,332.688 168,336C168,339.312 170.688,342 174,342L186,342C189.312,342 192,339.312 192,336C192,332.688 189.312,330 186,330Z" style="fill:rgb(240,127,42);fill-rule:nonzero;"/>
                    <path d="M282,60C291.941,60 300,68.059 300,78C300,81.312 302.688,84 306,84C309.312,84 312,81.312 312,78C311.98,61.441 298.559,48.02 282,48C278.688,48 276,50.688 276,54C276,57.312 278.688,60 282,60Z" style="fill:rgb(240,127,42);fill-rule:nonzero;"/>
                    <path d="M282,12C318.434,12.043 347.957,41.566 348,78C348,81.312 350.688,84 354,84C357.312,84 360,81.312 360,78C359.949,34.941 325.059,0.051 282,0C278.688,0 276,2.688 276,6C276,9.312 278.688,12 282,12Z" style="fill:rgb(240,127,42);fill-rule:nonzero;"/>
                    <path d="M282,36C305.184,36.027 323.973,54.816 324,78C324,81.312 326.688,84 330,84C333.312,84 336,81.312 336,78C335.965,48.191 311.809,24.035 282,24C278.688,24 276,26.688 276,30C276,33.312 278.688,36 282,36Z" style="fill:rgb(240,127,42);fill-rule:nonzero;"/>
                </g>
            </g>
            <g transform="matrix(0.67542,0,0,0.67542,-3899.06,926.629)">
                <path d="M201.227,184.234L375.723,184.234C376.625,178.953 377.078,173.609 377.086,168.25L377.086,104.301C377.086,51.324 334.133,8.375 281.16,8.375L105.301,8.375C52.324,8.375 9.379,51.324 9.379,104.301L9.379,168.25C9.336,196.855 22.09,223.977 44.148,242.188L8.016,295.27L85.16,262.094C91.781,263.48 98.531,264.18 105.301,264.172L106.66,264.172C114.43,218.008 154.41,184.211 201.227,184.234Z" style="fill:rgb(240,127,42);fill-rule:nonzero;"/>
                <g transform="matrix(1.24388,0,0,1.2178,-58.6534,-52.2196)">
                    <path d="M481,280.16C480.914,225.781 438.945,180.652 384.715,176.629C384.949,173.82 385.078,171.031 385.078,168.25L385.078,104.301C385.012,46.934 338.527,0.449 281.16,0.383L105.301,0.383C47.938,0.449 1.449,46.934 1.387,104.301L1.387,168.25C1.34,196.691 12.98,223.899 33.59,243.5L1.387,290.773C-0.613,293.715 -0.434,297.617 1.828,300.359C4.09,303.098 7.887,304.02 11.152,302.613L86.02,270.418C89.867,271.102 93.746,271.566 97.645,271.82C97.41,274.613 97.281,277.418 97.281,280.16L97.281,344.109C97.348,401.484 143.848,447.973 201.227,448.023L377.086,448.023C383.09,448.023 389.09,447.516 395.012,446.5L469.355,478.473C472.617,479.883 476.422,478.965 478.688,476.219C480.949,473.473 481.125,469.566 479.121,466.625L447.664,420.418C468.988,400.781 481.082,373.098 481,344.109L481,280.16ZM82,254.758L30.043,277.09L50.738,246.715C53.055,243.301 52.395,238.688 49.219,236.062C28.992,219.36 17.305,194.477 17.371,168.25L17.371,104.301C17.426,55.766 56.762,16.43 105.301,16.371L281.16,16.371C329.695,16.43 369.031,55.766 369.09,104.301L369.09,168.25C369.09,170.895 368.961,173.566 368.711,176.242L201.227,176.242C198.105,176.242 195.023,176.383 191.977,176.66C190.961,176.746 189.969,176.922 188.961,177.043C186.949,177.277 184.926,177.508 182.941,177.844C181.762,178.051 180.602,178.355 179.434,178.598C177.668,178.977 175.891,179.328 174.156,179.793C172.93,180.121 171.762,180.527 170.527,180.902C168.93,181.398 167.262,181.887 165.66,182.504C164.438,182.953 163.266,183.461 162.047,183.949C160.512,184.57 158.977,185.18 157.492,185.867C156.285,186.418 155.094,187.043 153.941,187.645C152.512,188.367 151.078,189.098 149.68,189.887C148.523,190.551 147.395,191.266 146.258,191.969C144.906,192.809 143.566,193.645 142.262,194.539C141.16,195.301 140.078,196.141 139,196.941C137.746,197.875 136.5,198.816 135.285,199.816C134.234,200.672 133.223,201.566 132.215,202.465C131.047,203.5 129.895,204.539 128.781,205.66C127.805,206.613 126.852,207.59 125.906,208.574C124.844,209.703 123.801,210.84 122.785,212.016C121.879,213.043 121.008,214.102 120.145,215.211C119.184,216.43 118.242,217.66 117.324,218.914C116.508,220.031 115.707,221.164 114.922,222.305C114.062,223.598 113.227,224.914 112.422,226.254C111.703,227.434 111,228.648 110.328,229.848C109.531,231.223 108.859,232.621 108.164,234.035C107.539,235.293 106.93,236.547 106.355,237.824C105.715,239.273 105.133,240.754 104.551,242.238C104.039,243.547 103.527,244.852 103.062,246.195C102.543,247.723 102.078,249.289 101.621,250.855C101.23,252.203 100.824,253.551 100.48,254.926C100.375,255.34 100.23,255.727 100.125,256.164C95.641,255.91 91.18,255.32 86.777,254.406C85.191,254.023 83.52,254.148 82,254.758ZM465.016,344.109C465.094,370.832 452.945,396.125 432.039,412.766C428.781,415.379 428.082,420.059 430.441,423.508L450.488,452.941L399.121,430.855C398.113,430.418 397.023,430.191 395.926,430.199C395.406,430.199 394.891,430.25 394.379,430.352C388.684,431.473 382.887,432.039 377.086,432.039L201.227,432.039C152.688,431.984 113.352,392.648 113.297,344.109L113.297,280.16C113.348,231.621 152.684,192.285 201.227,192.23L377.086,192.23C425.621,192.289 464.957,231.625 465.016,280.16L465.016,344.109Z" style="fill:rgb(111,111,112);fill-rule:nonzero;"/>
                </g>
                <path d="M249.188,336.113L233.199,336.113C228.781,336.113 225.207,332.535 225.207,328.121C225.207,323.707 228.781,320.125 233.199,320.125L249.188,320.125C253.602,320.125 257.18,323.707 257.18,328.121C257.18,332.535 253.602,336.113 249.188,336.113Z" style="fill:rgb(240,127,42);fill-rule:nonzero;"/>
                <path d="M297.148,336.113L281.16,336.113C276.742,336.113 273.168,332.535 273.168,328.121C273.168,323.707 276.742,320.125 281.16,320.125L297.148,320.125C301.562,320.125 305.141,323.707 305.141,328.121C305.141,332.535 301.562,336.113 297.148,336.113Z" style="fill:rgb(240,127,42);fill-rule:nonzero;"/>
                <path d="M345.109,336.113L329.121,336.113C324.703,336.113 321.129,332.535 321.129,328.121C321.129,323.707 324.703,320.125 329.121,320.125L345.109,320.125C349.523,320.125 353.105,323.707 353.105,328.121C353.105,332.535 349.523,336.113 345.109,336.113Z" style="fill:rgb(240,127,42);fill-rule:nonzero;"/>
            </g>
            <g transform="matrix(1.23931,0,0,1.23931,-1735.43,-641.294)">
                <path d="M48.941,150.879L150.82,49L150.762,49L48.941,150.879Z" style="fill:rgb(155,201,255);fill-rule:nonzero;"/>
                <path d="M125.32,6.578L6.52,125.379L40.48,159.34L48.941,150.879L150.762,49L150.82,49L159.281,40.539L125.32,6.578Z" style="fill:rgb(240,127,42);fill-rule:nonzero;"/>
                <path d="M209.676,46.699L243.613,12.762L362.387,131.539L328.453,165.473L209.676,46.699Z" style="fill:rgb(240,127,42);fill-rule:nonzero;"/>
                <path d="M366.684,127.281L247.883,8.48C245.5,6.23 241.777,6.23 239.398,8.48L205.457,42.426C203.113,44.766 203.113,48.566 205.457,50.906L208.707,54.16L173.512,62.559L159.398,48.922L163.547,44.781C165.887,42.438 165.887,38.641 163.547,36.297L129.586,2.34C127.242,-0.004 123.445,-0.004 121.102,2.34L2.301,121.137C-0.039,123.48 -0.039,127.277 2.301,129.621L36.262,163.582C38.605,165.926 42.402,165.926 44.746,163.582L49.055,159.273L77.949,186.969L76.426,188.492C69.609,195.363 67.59,205.656 71.297,214.594C75.008,223.535 83.723,229.371 93.398,229.395C93.941,229.395 94.469,229.277 95.004,229.238C94.965,229.785 94.84,230.312 94.84,230.859C94.84,244.113 105.586,254.859 118.84,254.859C119.375,254.859 119.902,254.746 120.438,254.711C120.397,255.25 120.281,255.777 120.281,256.324C120.188,263.758 123.582,270.805 129.453,275.367C135.324,279.926 142.992,281.473 150.172,279.543C151.102,291.988 161.5,301.59 173.98,301.527C180.117,301.508 186.012,299.148 190.469,294.93L192.477,296.836C196.965,301.355 203.07,303.891 209.441,303.879C215.793,303.863 221.879,301.34 226.383,296.859C230.406,292.848 232.852,287.523 233.273,281.859C241.438,284.062 250.152,281.688 256.07,275.648C260.098,271.641 262.543,266.316 262.965,260.648C264.879,261.156 266.848,261.422 268.828,261.449C281.301,261.469 291.684,251.879 292.66,239.445C294.574,239.965 296.547,240.242 298.527,240.27C308.262,240.258 317.023,234.375 320.727,225.375C324.426,216.371 322.328,206.027 315.418,199.176L300.586,184.895L320.016,165.465L324.215,169.695C325.34,170.824 326.867,171.457 328.461,171.457C330.051,171.457 331.578,170.824 332.703,169.695L366.641,135.754C368.984,133.426 369.004,129.637 366.684,127.281ZM40.48,150.855L15.004,125.379L125.32,15.062L150.797,40.539L40.48,150.855ZM84.957,213.934C82.688,211.691 81.406,208.637 81.398,205.445C81.395,202.254 82.664,199.191 84.93,196.941L118.883,163C123.551,158.336 131.113,158.32 135.801,162.965C138.074,165.207 139.355,168.262 139.359,171.453C139.367,174.645 138.098,177.703 135.84,179.957L101.879,213.914C97.203,218.574 89.645,218.582 84.957,213.934ZM110.398,239.375C108.129,237.133 106.848,234.078 106.84,230.887C106.832,227.695 108.102,224.633 110.363,222.383L152.781,179.961C155.039,177.711 158.098,176.449 161.285,176.453C164.473,176.461 167.527,177.734 169.773,179.996C172.051,182.227 173.328,185.281 173.32,188.465C173.316,191.652 172.023,194.699 169.738,196.918L127.316,239.34C122.647,244 115.09,244.016 110.398,239.375ZM135.84,264.812C133.566,262.57 132.285,259.516 132.281,256.324C132.273,253.133 133.539,250.074 135.801,247.82L169.762,213.863C174.434,209.199 181.992,209.184 186.684,213.824C188.953,216.078 190.234,219.145 190.238,222.34C190.246,225.539 188.98,228.609 186.719,230.871L152.801,264.777C148.066,269.32 140.594,269.34 135.84,264.812ZM182.535,286C177.82,290.676 170.219,290.676 165.504,286C163.246,283.754 161.98,280.703 161.98,277.523C161.98,274.34 163.246,271.289 165.504,269.043L191.016,243.531C195.691,238.887 203.242,238.887 207.922,243.531C210.195,245.809 211.473,248.895 211.48,252.113C211.477,254.016 211,255.891 210.09,257.559C209.469,258.621 208.754,259.625 207.957,260.559L182.535,286ZM217.938,288.359C213.141,292.902 205.617,292.859 200.879,288.258L199.023,286.496L216.012,269.512L218.066,271.559C220.281,273.801 221.512,276.832 221.488,279.984C221.465,283.137 220.188,286.148 217.938,288.359ZM307,207.723C309.266,209.969 310.547,213.023 310.555,216.211C310.566,219.403 309.305,222.465 307.055,224.723C302.312,229.285 294.82,229.297 290.062,224.754L271.16,205.859C268.809,203.586 265.066,203.617 262.75,205.93C260.438,208.246 260.402,211.988 262.68,214.344L277.328,229C279.602,231.242 280.875,234.309 280.863,237.5C280.852,240.691 279.559,243.746 277.27,245.973C272.531,250.496 265.074,250.48 260.355,245.938L245.715,231.297C243.367,228.957 239.566,228.961 237.227,231.309C234.887,233.656 234.891,237.457 237.238,239.801L247.617,250.18C249.898,252.441 251.18,255.523 251.172,258.734C251.168,261.918 249.89,264.969 247.617,267.195C242.879,271.742 235.398,271.742 230.66,267.195L222.328,258.91C223.047,256.715 223.434,254.426 223.48,252.117C223.477,245.738 220.945,239.617 216.441,235.098C212.418,231.102 207.098,228.676 201.441,228.262C203.09,221.879 202.023,215.098 198.504,209.523C194.98,203.953 189.312,200.078 182.844,198.824C187.398,189.676 185.523,178.633 178.211,171.496C171,164.328 160.051,162.492 150.898,166.926C149.207,158.219 142.848,151.152 134.367,148.555C125.887,145.957 116.664,148.25 110.387,154.516L86.387,178.516L57.488,150.82L58.02,150.297L150.891,57.398L162.398,68.523L131.621,99.32C127.098,103.812 124.547,109.918 124.539,116.293C124.531,122.668 127.066,128.781 131.578,133.281C141.078,142.324 156.004,142.324 165.504,133.281L192.82,105.965C195.133,103.656 198.867,103.621 201.219,105.887L307,207.723ZM291.953,176.586L209.543,97.238C202.457,90.492 191.297,90.602 184.344,97.48L157,124.797C152.242,129.348 144.742,129.328 140.008,124.758C137.77,122.508 136.516,119.465 136.523,116.293C136.527,113.121 137.797,110.078 140.043,107.844L172.805,75.082L218.656,64.125L311.535,157L291.953,176.586ZM328.496,157L218.199,46.672L243.656,21.215L353.957,131.523L328.496,157Z" style="fill:rgb(111,111,112);fill-rule:nonzero;"/>
                <path d="M250,61C248.41,61 246.883,60.367 245.758,59.242L239.758,53.242C237.484,50.887 237.516,47.145 239.832,44.832C242.145,42.516 245.887,42.484 248.242,44.758L254.242,50.758C255.957,52.473 256.469,55.055 255.543,57.297C254.613,59.539 252.426,61 250,61Z" style="fill:rgb(240,127,42);fill-rule:nonzero;"/>
                <path d="M118,55C115.574,55 113.387,53.539 112.457,51.297C111.531,49.055 112.043,46.473 113.758,44.758L119.758,38.758C122.113,36.484 125.855,36.516 128.168,38.832C130.484,41.145 130.516,44.887 128.242,47.242L122.242,53.242C121.117,54.367 119.59,55 118,55Z" style="fill:rgb(240,127,42);fill-rule:nonzero;"/>
            </g>
        </g>
        <g transform="matrix(2.83622,0,0,2.83622,-2494.35,-1846.2)">
            <g transform="matrix(0.865771,0,0,0.865771,-140.647,-26.6045)">
                <text x="281.903px" y="325.267px" style="font-family:'ArialMT', 'Arial', sans-serif;font-size:42.833px;fill:rgb(78,78,78);">T<tspan x="311.494px 338.742px 365.99px 381.317px 415.676px 442.924px 482.031px 509.279px 522.221px 549.469px 564.796px 592.044px 607.371px 639.367px 666.615px 681.942px 709.19px 726.881px 754.129px 771.819px 784.762px 809.605px 836.853px 852.18px 884.175px 911.423px 924.366px 951.614px 966.941px 979.884px 1007.13px " y="325.267px 325.267px 325.267px 325.267px 325.267px 325.267px 325.267px 325.267px 325.267px 325.267px 325.267px 325.267px 325.267px 325.267px 325.267px 325.267px 325.267px 325.267px 325.267px 325.267px 325.267px 325.267px 325.267px 325.267px 325.267px 325.267px 325.267px 325.267px 325.267px 325.267px 325.267px ">he Complete Enterprise Solution</tspan></text>
            </g>
            <g transform="matrix(1.13658,0,0,1.13658,-140.038,-195.232)">
                <path d="M589.03,336.344L589.03,244.107L658.302,244.107L658.302,263.002L610.552,263.002L610.552,280.667L637.302,280.667L637.302,299.561L610.552,299.561L610.552,317.449L658.302,317.449L658.302,336.344L589.03,336.344Z" style="fill:rgb(70,73,71);fill-rule:nonzero;"/>
                <path d="M249.791,336.344C242.136,336.344 235.292,335.136 229.258,332.723C223.222,330.309 218.204,326.777 214.2,322.125L225.592,303.932C229.36,307.937 233.305,310.997 237.427,313.117C241.547,315.237 245.669,316.296 249.791,316.296C252.087,316.296 254.074,315.914 255.752,315.148C257.43,314.384 258.754,313.28 259.726,311.836C260.698,310.394 261.184,308.643 261.184,306.582C261.184,304.228 260.521,302.373 259.196,301.018C257.872,299.664 255.854,298.413 253.147,297.265C250.438,296.117 246.935,294.659 242.637,292.893C238.986,291.363 235.484,289.625 232.127,287.683C228.772,285.74 226.048,283.267 223.958,280.264C221.868,277.261 220.824,273.464 220.824,268.871C220.824,263.279 222.383,258.348 225.505,254.079C228.624,249.811 232.937,246.47 238.442,244.055C243.947,241.642 250.29,240.434 257.475,240.434C261.948,240.434 266.644,241.112 271.56,242.466C276.475,243.821 281.73,245.881 287.325,248.648L278.052,266.045C270.457,261.159 263.656,258.715 257.651,258.715C254.295,258.715 251.615,259.453 249.614,260.923C247.612,262.396 246.611,264.25 246.611,266.487C246.611,268.606 247.656,270.448 249.747,272.007C251.836,273.568 254.397,274.951 257.43,276.157C260.461,277.365 263.361,278.469 266.129,279.469C270.662,281.118 274.68,282.944 278.184,284.945C281.686,286.948 284.439,289.552 286.441,292.761C288.442,295.97 289.444,300.254 289.444,305.611C289.444,312.146 287.869,317.696 284.719,322.258C281.569,326.821 277.036,330.309 271.119,332.723C265.202,335.136 258.092,336.344 249.791,336.344" style="fill:rgb(70,73,71);fill-rule:nonzero;"/>
                <path d="M339.252,336.344C332.363,336.344 325.872,335.108 319.778,332.635C313.685,330.162 308.312,326.732 303.661,322.346C299.009,317.961 295.359,312.867 292.71,307.068C290.061,301.269 288.736,295.043 288.736,288.389C288.736,281.972 289.985,275.879 292.489,270.108C294.991,264.338 298.523,259.216 303.086,254.741C307.649,250.268 313.007,246.735 319.16,244.143C325.312,241.553 331.979,240.257 339.164,240.257C344.992,240.257 350.6,241.083 355.987,242.731C361.374,244.38 365.715,246.499 369.014,249.09L359.741,267.37C355.324,264.133 349.849,262.513 343.314,262.513C337.72,262.513 332.981,263.749 329.096,266.222C325.21,268.695 322.251,271.905 320.22,275.848C318.189,279.793 317.173,283.944 317.173,288.301C317.173,293.069 318.262,297.412 320.44,301.327C322.618,305.243 325.695,308.348 329.669,310.644C333.644,312.94 338.249,314.089 343.49,314.089C346.728,314.089 349.761,313.647 352.586,312.763C355.413,311.881 357.797,310.703 359.741,309.231L369.014,327.512C365.657,330.044 361.331,332.149 356.031,333.826C350.732,335.505 345.138,336.344 339.252,336.344" style="fill:rgb(70,73,71);fill-rule:nonzero;"/>
                <path d="M418.381,313.206C422.973,313.206 427.152,312.146 430.922,310.026C434.689,307.907 437.662,304.979 439.841,301.24C442.018,297.501 443.109,293.189 443.109,288.301C443.109,283.414 442.018,279.103 439.841,275.364C437.662,271.625 434.689,268.695 430.922,266.576C427.152,264.457 422.973,263.396 418.381,263.396C413.729,263.396 409.534,264.457 405.796,266.576C402.056,268.695 399.097,271.625 396.92,275.364C394.741,279.103 393.653,283.414 393.653,288.301C393.653,293.189 394.741,297.501 396.92,301.24C399.097,304.979 402.056,307.907 405.796,310.026C409.534,312.146 413.729,313.206 418.381,313.206M418.293,336.345C408.342,336.345 399.362,334.298 391.357,330.206C383.349,326.115 376.99,320.463 372.28,313.25C367.569,306.039 365.215,297.722 365.215,288.301C365.215,278.882 367.556,270.565 372.236,263.352C376.917,256.142 383.276,250.489 391.312,246.396C399.349,242.305 408.342,240.258 418.293,240.258C428.3,240.258 437.309,242.305 445.317,246.396C453.322,250.489 459.668,256.142 464.348,263.352C469.029,270.565 471.369,278.882 471.369,288.301C471.369,297.722 469.029,306.039 464.348,313.25C459.668,320.463 453.322,326.115 445.317,330.206C437.309,334.298 428.3,336.345 418.293,336.345" style="fill:rgb(70,73,71);fill-rule:nonzero;"/>
                <path d="M528.156,313.294C532.865,313.294 537.028,312.22 540.649,310.071C544.273,307.922 547.112,304.979 549.173,301.239C551.233,297.501 552.264,293.218 552.264,288.389C552.264,283.563 551.204,279.264 549.083,275.495C546.966,271.728 544.109,268.755 540.517,266.576C536.925,264.398 532.804,263.309 528.156,263.309C523.504,263.309 519.337,264.398 515.659,266.576C511.979,268.755 509.08,271.713 506.96,275.452C504.84,279.191 503.78,283.502 503.78,288.389C503.78,293.158 504.825,297.428 506.916,301.195C509.005,304.964 511.906,307.922 515.616,310.071C519.322,312.22 523.504,313.294 528.156,313.294M477.375,339.886L477.375,243.084L504.487,243.084L504.487,254.124C508.136,249.708 512.67,246.294 518.087,243.879C523.504,241.465 529.33,240.257 535.572,240.257C544.284,240.257 552.044,242.348 558.842,246.529C565.644,250.709 571.001,256.419 574.918,263.661C578.831,270.903 580.792,279.116 580.792,288.301C580.792,297.369 578.845,305.538 574.961,312.809C571.075,320.081 565.762,325.821 559.02,330.029C552.279,334.238 544.67,336.344 536.189,336.344C530.009,336.344 524.181,335.063 518.704,332.502C513.23,329.941 508.49,326.307 504.487,321.595L504.487,355.747L493.236,355.747C484.476,355.747 477.375,348.646 477.375,339.886" style="fill:rgb(70,73,71);fill-rule:nonzero;"/>
                <path d="M666.541,336.554L706.174,287.873L672.151,243.898L710.607,243.898L726.171,264.89L741.733,243.898L780.101,243.898L746.078,287.873L785.8,336.554L746.168,336.554L726.171,310.947L706.174,336.554L666.541,336.554Z" style="fill:rgb(240,127,42);fill-rule:nonzero;"/>
                <path d="M418.914,283.033C418.914,281.907 419.271,280.867 419.87,280.01C419.434,279.94 418.996,279.875 418.541,279.875C413.871,279.875 410.085,283.661 410.085,288.331C410.085,293.001 413.871,296.786 418.541,296.786C423.211,296.786 426.997,293.001 426.997,288.331C426.997,288.069 426.943,287.821 426.919,287.565C426.125,288.04 425.206,288.331 424.212,288.331C421.286,288.331 418.914,285.959 418.914,283.033" style="fill:rgb(240,127,42);fill-rule:nonzero;"/>
                <path d="M527.008,283.033C527.008,281.907 527.364,280.867 527.963,280.01C527.528,279.94 527.089,279.875 526.634,279.875C521.965,279.875 518.179,283.661 518.179,288.331C518.179,293.001 521.965,296.786 526.634,296.786C531.304,296.786 535.09,293.001 535.09,288.331C535.09,288.069 535.036,287.821 535.013,287.565C534.218,288.04 533.299,288.331 532.306,288.331C529.38,288.331 527.008,285.959 527.008,283.033" style="fill:rgb(240,127,42);fill-rule:nonzero;"/>
            </g>
        </g>
    </g>
</svg>
